<svg id="Layer_1" data-name="Layer 1" xmlns="http://www.w3.org/2000/svg" width="98.73" height="18.57" viewBox="0 0 98.73 18.57">
  <defs>
    <style>
      .cls-1 {
        fill: #013f48;
      }
    </style>
  </defs>
  <path id="Text" class="cls-1" d="M0,.25H5V13.76H13.1v4.51H0Zm23.32,12c0,2.9,5.65,2.9,5.68,0V.25h5.06v12c0,8.44-15.84,8.44-15.81,0V.25h5.07Zm27-6.64c-1.1-2.42-5.52-1.86-5.52.51v6.18c0,2.82,5.8,2.8,5.8,0v-.66H47.47V7.81h8v4.48c0,4.15-3.81,6.23-7.78,6.23s-7.84-2.08-7.84-6.23V6.11C39.83,2,43.75,0,47.67,0c2.57,0,5.51,1,6.88,3.84Zm10.22.58C60.58,2,64.66,0,68.78,0S77,2.06,77,6.18v6.16c0,4.12-4.08,6.18-8.2,6.18s-8.22-2.06-8.22-6.18Zm5,6.16c0,1.32,1.62,2,3.21,2s3.19-.66,3.19-2V6.18c0-1.4-1.65-2-3.27-2s-3.13.71-3.13,2ZM82.94.25H87.7l4.79,7.69,2,3.36-.78.68s.08-3.56.06-3.56V.25h5v18H93.66l-4.48-7.1-2.1-3.51.82-.94,0,4.35v7.2h-5Z"/>
</svg>
